<?xml version="1.0" encoding="utf-8"?>
<!-- Generator: Adobe Illustrator 24.3.0, SVG Export Plug-In . SVG Version: 6.00 Build 0)  -->
<svg version="1.1" id="Calque_1" xmlns="http://www.w3.org/2000/svg" xmlns:xlink="http://www.w3.org/1999/xlink" x="0px" y="0px"
	 viewBox="0 0 162.57 1483.02" style="enable-background:new 0 0 162.57 1483.02;" xml:space="preserve" width="16" height="150">
<style type="text/css">
	.st0{fill:#E51E35;}
</style>
<g>
	<path class="st0" d="M146.57,308.28v196.67H16V308.28H146.57 M152.57,302.28H10v208.67h142.57V302.28L152.57,302.28z"/>
</g>
<g>
	<path class="st0" d="M146.57,1280.35v196.67H16v-196.67H146.57 M152.57,1274.35H10v208.67h142.57V1274.35L152.57,1274.35z"/>
</g>
<g>
	<path class="st0" d="M146.57,536.02V732.7H16V536.02H146.57 M152.57,530.02H10V738.7h142.57V530.02L152.57,530.02z"/>
</g>
<g>
	<path class="st0" d="M146.57,927.89v90.52H16v-90.52H146.57 M152.57,921.89H10v102.52h142.57V921.89L152.57,921.89z"/>
</g>
<g>
	<path class="st0" d="M146.57,25.06v90.52H16V25.06H146.57 M152.57,19.06H10v102.52h142.57V19.06L152.57,19.06z"/>
</g>
<g>
	<path class="st0" d="M146.57,146.65v130.57H16V146.65H146.57 M152.57,140.65H10v142.57h142.57V140.65L152.57,140.65z"/>
</g>
<g>
	<path class="st0" d="M146.57,764.7v130.57H16V764.7H146.57 M152.57,758.7H10v142.57h142.57V758.7L152.57,758.7z"/>
</g>
<g>
	<path class="st0" d="M146.57,1051.05v196.67H16v-196.67H146.57 M152.57,1045.05H10v208.67h142.57V1045.05L152.57,1045.05z"/>
</g>
</svg>
