<svg xmlns="http://www.w3.org/2000/svg">

    <symbol id="arrow-right" viewBox="0 0 24 24">
        <path d="M1 12H22M22 12C17.7781 10.7347 16.1327 9.12241 14.6667 5M22 12C17.6867 13.3925 16.3342 15.1594 14.6667 19" stroke="currentColor" stroke-width="2" stroke-linecap="round" stroke-linejoin="round" fill="none"/>
    </symbol>

    <symbol id="arrow-up" viewBox="0 0 24 24">
        <path d="M12 22.5L12 1.5M12 1.5C10.7347 5.72194 9.12241 7.36729 5 8.83333M12 1.5C13.3925 5.81328 15.1594 7.16576 19 8.83333" stroke="currentColor" stroke-width="2" stroke-linecap="round" stroke-linejoin="round" fill="none"/>
    </symbol>

    <symbol id="linkedin" viewBox="0 0 24 24">
        <path fill="currentColor" d="M 5 3 C 3.895 3 3 3.895 3 5 L 3 19 C 3 20.105 3.895 21 5 21 L 19 21 C 20.105 21 21 20.105 21 19 L 21 5 C 21 3.895 20.105 3 19 3 L 5 3 z M 5 5 L 19 5 L 19 19 L 5 19 L 5 5 z M 7.7792969 6.3164062 C 6.9222969 6.3164062 6.4082031 6.8315781 6.4082031 7.5175781 C 6.4082031 8.2035781 6.9223594 8.7167969 7.6933594 8.7167969 C 8.5503594 8.7167969 9.0644531 8.2035781 9.0644531 7.5175781 C 9.0644531 6.8315781 8.5502969 6.3164062 7.7792969 6.3164062 z M 6.4765625 10 L 6.4765625 17 L 9 17 L 9 10 L 6.4765625 10 z M 11.082031 10 L 11.082031 17 L 13.605469 17 L 13.605469 13.173828 C 13.605469 12.034828 14.418109 11.871094 14.662109 11.871094 C 14.906109 11.871094 15.558594 12.115828 15.558594 13.173828 L 15.558594 17 L 18 17 L 18 13.173828 C 18 10.976828 17.023734 10 15.802734 10 C 14.581734 10 13.930469 10.406562 13.605469 10.976562 L 13.605469 10 L 11.082031 10 z" />
    </symbol>

    <symbol id="github" viewBox="0 0 32 32">
        <path fill="currentColor" d="M15,3C8.373,3,3,8.373,3,15c0,5.623,3.872,10.328,9.092,11.63C12.036,26.468,12,26.28,12,26.047v-2.051 c-0.487,0-1.303,0-1.508,0c-0.821,0-1.551-0.353-1.905-1.009c-0.393-0.729-0.461-1.844-1.435-2.526 c-0.289-0.227-0.069-0.486,0.264-0.451c0.615,0.174,1.125,0.596,1.605,1.222c0.478,0.627,0.703,0.769,1.596,0.769 c0.433,0,1.081-0.025,1.691-0.121c0.328-0.833,0.895-1.6,1.588-1.962c-3.996-0.411-5.903-2.399-5.903-5.098 c0-1.162,0.495-2.286,1.336-3.233C9.053,10.647,8.706,8.73,9.435,8c1.798,0,2.885,1.166,3.146,1.481C13.477,9.174,14.461,9,15.495,9 c1.036,0,2.024,0.174,2.922,0.483C18.675,9.17,19.763,8,21.565,8c0.732,0.731,0.381,2.656,0.102,3.594 c0.836,0.945,1.328,2.066,1.328,3.226c0,2.697-1.904,4.684-5.894,5.097C18.199,20.49,19,22.1,19,23.313v2.734 c0,0.104-0.023,0.179-0.035,0.268C23.641,24.676,27,20.236,27,15C27,8.373,21.627,3,15,3z" />
    </symbol>

</svg>
