<?xml version="1.0" encoding="utf-8"?>
<!-- Generator: Adobe Illustrator 24.3.0, SVG Export Plug-In . SVG Version: 6.00 Build 0)  -->
<svg version="1.1" id="Calque_1" xmlns="http://www.w3.org/2000/svg" xmlns:xlink="http://www.w3.org/1999/xlink" x="0px" y="0px"
	 viewBox="0 0 160 222" style="enable-background:new 0 0 160 222;" xml:space="preserve">
<style type="text/css">
	.st0{fill:#81BB27;}
	.st1{opacity:0.3;fill:#FFFFFF;}
	.st2{opacity:0.25;fill:#010202;}
	.st3{opacity:0.1;fill:#010202;}
	.st4{fill:#CC8537;}
	.st5{fill:#BECDCD;}
	.st6{opacity:0.25;}
	.st7{fill:#010202;}
	.st8{fill:#93A09F;}
	.st9{fill:#3A7ABE;}
	.st10{opacity:0.25;fill:#FFFFFF;}
	.st11{fill:#454C4C;}
	.st12{fill:#606E6D;}
	.st13{opacity:0.25;fill:#020203;}
	.st14{fill:#464646;}
	.st15{fill:none;stroke:#6E7D87;stroke-width:7.4314;stroke-linecap:round;stroke-miterlimit:10;}
	.st16{fill:#964B30;}
	.st17{fill:#C38355;}
	.st18{fill:#B08051;}
	.st19{fill:#C6905D;}
	.st20{fill:#DDC4B0;}
	.st21{fill:#A6B0B0;}
	.st22{fill:#D7E6E5;}
	.st23{fill:#7D2B1D;}
	.st24{fill:#5A6564;}
	.st25{fill:none;stroke:#6E7D87;stroke-width:7;stroke-linecap:round;stroke-miterlimit:10;}
	.st26{fill:#828C8C;}
	.st27{fill:#6E7D87;}
	.st28{fill:#91A0A0;}
	.st29{fill:url(#SVGID_1_);}
	.st30{fill:none;stroke:#464646;stroke-width:3.3967;stroke-linecap:round;stroke-miterlimit:10;}
	.st31{fill:none;stroke:#464646;stroke-width:3.3458;stroke-linecap:round;stroke-miterlimit:10;}
	.st32{fill:none;stroke:#464646;stroke-width:3.2612;stroke-linecap:round;stroke-miterlimit:10;}
	.st33{fill:url(#SVGID_2_);}
	.st34{fill:#BDCDCD;}
	.st35{opacity:0.3;fill:#010202;}
	.st36{opacity:0.05;fill:#010202;}
</style>
<g>
	<path class="st0" d="M128,58L96,42L64,58v56l32,16l32-16V58z"/>
	<path class="st1" d="M64,88l32,16l32-16v2l-32,16L64,90V88z"/>
	<polygon class="st2" points="128,90 128,114 96,130 96,106 	"/>
	<polygon class="st3" points="64,90 64,114 96,130 96,106 	"/>
</g>
<g>
	<path class="st4" d="M160,104.05l-32-16l-32,16v55.99l32,16l32-16V104.05z"/>
	<path class="st1" d="M96,134.04l32,16l32-16v2l-32,16l-32-16V134.04z"/>
	<polygon class="st2" points="160,136.04 160,160.04 128,176.04 128,152.04 	"/>
	<polygon class="st3" points="96,136.04 96,160.04 128,176.04 128,152.04 	"/>
</g>
<g>
	<path class="st4" d="M96,104.05l-32-16l-32,16v55.99l32,16l32-16V104.05z"/>
	<path class="st1" d="M32,134.04l32,16l32-16v2l-32,16l-32-16V134.04z"/>
	<polygon class="st2" points="96,136.04 96,160.04 64,176.04 64,152.04 	"/>
	<polygon class="st3" points="32,136.04 32,160.04 64,176.04 64,152.04 	"/>
</g>
<g>
	<path class="st4" d="M64,206l32,16l32-16v-12l-8-2l-8,10l-8-2l-8,10l-8.06-10.03L80,202l-7.8-10l-8.2,2V206z"/>
	<path class="st0" d="M128,150l-32-16l-32,16v44l8.2-2l7.8,10l7.94-2.03L96,210l8-10l8,2l8-10l8,2V150z"/>
	<path class="st1" d="M64,180l32,16l32-16v2l-32,16l-32-16V180z"/>
	<polygon class="st2" points="128,182 128,206 96,222 96,198 	"/>
	<polygon class="st3" points="64,182 64,206 96,222 96,198 	"/>
</g>
<g>
	<g>
		<polygon class="st5" points="155,130.19 155,108.37 128,94.87 101,108.37 101,130.19 128,143.69 		"/>
	</g>
	<g class="st6">
		<polygon class="st7" points="155,108.19 155,106.37 128,92.87 101,106.37 101,108.19 128,94.69 		"/>
	</g>
</g>
<g>
	<g>
		<polygon class="st5" points="123,176.69 123,154.87 96,141.37 69,154.87 69,176.69 96,190.19 		"/>
	</g>
	<g class="st6">
		<polygon class="st7" points="123,154.69 123,152.87 96,139.37 69,152.87 69,154.69 96,141.19 		"/>
	</g>
</g>
<g>
	<path class="st8" d="M96,78L64,62L32,78v56l32,16l32-16V78z"/>
	<path class="st1" d="M32,108l32,16l32-16v2l-32,16l-32-16V108z"/>
	<polygon class="st2" points="96,110 96,134 64,150 64,126 	"/>
	<polygon class="st3" points="32,110 32,134 64,150 64,126 	"/>
</g>
<g>
	<path class="st9" d="M96,52L64,36L32,52v56l32,16l32-16V52z"/>
	<path class="st1" d="M32,82l32,16l32-16v2l-32,16L32,84V82z"/>
	<polygon class="st2" points="96,84 96,108 64,124 64,100 	"/>
	<polygon class="st3" points="32,84 32,108 64,124 64,100 	"/>
</g>
<g>
	<path class="st5" d="M96,26L64,10L32,26v56l32,16l32-16V26z"/>
	<path class="st1" d="M32,56l32,16l32-16v2L64,74L32,58V56z"/>
	<polygon class="st3" points="32,58 32,82 64,98 64,74 	"/>
	<g>
		<polygon class="st10" points="51.92,86.96 51.92,88.96 41.9,83.95 41.9,81.95 		"/>
		<path class="st11" d="M50.92,78.46c0,2.86,0,8,0,8l-8-4L50.92,78.46z"/>
		<path class="st12" d="M46.92,70.4c3.8,1.93,4,5.62,4,7.2c0,0.09,0-0.17,0,0.86l-8,4c0,0,0-7.27,0-8.86
			C42.92,71.4,43.58,68.7,46.92,70.4z"/>
	</g>
	<g>
		<polygon class="st10" points="74.99,86.96 74.99,88.96 85.01,83.95 85.01,81.95 		"/>
		<path class="st11" d="M75.99,78.46c0,2.86,0,8,0,8l8-4L75.99,78.46z"/>
		<path class="st12" d="M79.99,70.4c-3.8,1.93-4,5.62-4,7.2c0,0.09,0-0.17,0,0.86l8,4c0,0,0-7.27,0-8.86
			C83.99,71.4,83.32,68.7,79.99,70.4z"/>
	</g>
	<polygon class="st2" points="96,58 96,82 64,98 64,74 	"/>
</g>
<g>
	<ellipse class="st13" cx="95.47" cy="165.12" rx="20" ry="12.5"/>
	<path class="st14" d="M102.75,161.97c0,0,1.34,2.32,1.4,4.75c0,0-5.24,0.08-8.69-2.75c0,0,0.11-1.92,0.88-2.78L102.75,161.97z"/>
	<path class="st14" d="M94.76,163.59c0,0,0.88,2.68-0.21,5.07c0,0-7.05,0.35-8.38-4.59c0,0,0.56-1.84,1.51-2.49L94.76,163.59z"/>
	<g>
		<path class="st15" d="M101.03,147.41c0,0,0.68,1.84,1.66,2.94"/>
		<g>
			<path class="st16" d="M107.04,155.04c-2,0.17-5.3-2.27-5.3-2.27c0.64-4.36,3.94-4.94,3.94-4.94c1.34,0.55,1.88,2.38,1.88,2.38
				c1.9,0.02,3.95,1.36,3.95,1.36l0.11,2.6L107.04,155.04z"/>
			<g>
				<path class="st17" d="M106.45,148.36c-0.22-0.22-0.48-0.41-0.78-0.53c0,0-3.29,0.58-3.94,4.94c0,0,0.3,0.22,0.78,0.53
					C103.15,148.95,106.43,148.37,106.45,148.36z"/>
			</g>
			<path class="st17" d="M107.25,149.49c-0.63,0.17-3,1.04-3.69,4.43c0.26,0.14,0.53,0.28,0.8,0.41c0.59-2.7,2.25-3.76,3.18-4.14
				C107.53,150.17,107.44,149.88,107.25,149.49z"/>
		</g>
		<g>
			
				<rect x="104.68" y="152.11" transform="matrix(0.9775 -0.2108 0.2108 0.9775 -29.9816 26.2641)" class="st18" width="7" height="3.25"/>
			
				<rect x="110.89" y="147.8" transform="matrix(0.9774 -0.2114 0.2114 0.9774 -29.8136 27.0875)" class="st19" width="1.74" height="10.32"/>
			<polygon class="st20" points="113.46,157.87 111.28,147.79 111.87,147.66 114.05,157.74 			"/>
			<polygon class="st5" points="128.86,144.41 111.92,149.48 113.28,155.74 130.8,153.35 134.25,147.91 			"/>
			<polygon class="st21" points="128.59,149.16 130.8,153.35 113.28,155.74 112.6,152.61 			"/>
			<polygon class="st22" points="128.86,144.41 134.25,147.91 128.59,149.16 			"/>
		</g>
		<path class="st23" d="M106.77,156.81c0,0-1.64-0.92-1.05-3.36c0,0,1.14-1.52,3.62-1.09c0,0,0.92,1.04,1.23,2.52l0.69-0.15
			l0.2,0.93C111.46,155.66,109.51,157.28,106.77,156.81z"/>
	</g>
	<path class="st24" d="M102.26,147.47c0,0,3.96,4.59,2.37,13.01c0,0-3.42,6.75-19.06,1.98c0,0-2.28-10.23-1.45-15.44
		C88.55,145.35,102.26,147.47,102.26,147.47z"/>
	<g>
		<path class="st25" d="M85.58,150.87c0,0,0.08,1.82,0.46,3.66"/>
		<g>
			<path class="st16" d="M90.14,151.98c0,0-6.1,0.51-8.94-0.2c0,0,0.44,3.69,1.76,5.2l0.14,0.97c0,0-1.64,1.72-0.53,4.17
				c0,0,2.04,1.32,4.75,2.03c0,0,2.35-1.32,2.18-2.76c0,0,0.97-0.35,0.93-1.04c-0.06-1-0.76-2.73-1.21-2.76c0,0-0.22-0.23-0.27-0.69
				C88.96,156.88,89.99,154.99,90.14,151.98z"/>
			<g>
				<path class="st17" d="M90.04,153.01c0.05-0.33,0.08-0.67,0.1-1.03c0,0-6.1,0.51-8.94-0.2c0,0,0.05,0.42,0.17,1.03
					C83.97,153.43,89.02,153.07,90.04,153.01z"/>
			</g>
			<path class="st17" d="M82.94,156.95c0.01,0.01,0.01,0.02,0.02,0.03l0.14,0.97l0,0c1.96,0.1,4.58-0.14,6.28-0.33
				c-0.05-0.03-0.11-0.05-0.15-0.05c0,0-0.22-0.23-0.27-0.69c0,0,0.07-0.1,0.16-0.25C87.41,156.82,84.86,157.05,82.94,156.95z"/>
		</g>
	</g>
	<g>
		<path class="st9" d="M88.67,120.39c-3.03,1.33-4.59,15.39-7.93,23.17c-3.47,8.08-8.07,6.93-8.07,6.93
			c4.35-5.96,1.76-14.24-0.6-21.66c-0.5,5.36-4.32,6.59-4.32,6.59c3.58-9.62-2.81-24.72,3.11-33.32c4.69-6.81,13.35-4.75,13.35-4.75
			c-0.83-1.46-4.25-2.13-4.25-2.13s13.21-1.88,16.46,9.63c1.68,5.95-1.02,9.93-1.02,9.93L88.67,120.39z"/>
		<path class="st2" d="M80.08,135.94c0.36-11.34,0.61-17.03,0.61-17.03c-0.62-0.91-2.56-1.22-2.56-1.22
			c2.62-1.25,6.87-0.04,7.93,0.65l1.45,3.25c-2.33,3.83-3.88,15.25-6.77,21.97c-3.47,8.08-8.07,6.93-8.07,6.93
			S79.69,148.39,80.08,135.94z"/>
		<path class="st10" d="M70.64,117.68c0.37-10.97,3.62-19.93,13.57-20.33c0,0-8.67-2.06-13.35,4.75c-5.92,8.6,0.47,23.7-3.11,33.32
			C67.75,135.42,70.15,132.45,70.64,117.68z"/>
		<path class="st14" d="M115.15,126.36c-0.57-0.58-2.57-0.16-2.57-0.16l1.42,3.17L115.15,126.36z"/>
		<path class="st26" d="M107.03,152.49c0,0-15.74,1.06-28.22-7.74c0,0-2.39-8.62-1.48-17.54l17.68-2.68l17.87-1.16
			c0,0,1.12,3.33,1.34,6.54c0.13,1.87,0.5,7.48,0.5,7.48L107.03,152.49z"/>
		<path class="st27" d="M107.5,155.16c0,0-20.38-1.39-29.6-15.83l-0.34-7.64c17.9,1.17,28.65-1.28,28.65-1.28l4.07,12.26
			L107.5,155.16z"/>
		<path class="st28" d="M76.48,135.42c0.17,2.48,0.85,4.45,1.53,4.4c0.68-0.04,1.1-2.09,0.94-4.56c-0.17-2.48-0.85-4.45-1.54-4.4
			C76.74,130.9,76.32,132.95,76.48,135.42z"/>
		
			<linearGradient id="SVGID_1_" gradientUnits="userSpaceOnUse" x1="-299.1023" y1="146.6075" x2="-310.0163" y2="150.1537" gradientTransform="matrix(-0.9979 0.0668 0.0668 0.9979 -204.2105 12.6045)">
			<stop  offset="0" style="stop-color:#828C8C"/>
			<stop  offset="1" style="stop-color:#6E7D87"/>
		</linearGradient>
		<path class="st29" d="M115.15,126.36c0,0,0.79,8.02,0.59,13.18c-2.49,8.13-8.24,15.62-8.24,15.62s0.27-13.94-1.29-24.75
			C106.21,130.41,114.01,128.25,115.15,126.36z"/>
		<line class="st30" x1="101.22" y1="136.1" x2="101.77" y2="148.46"/>
		<g>
			<path class="st14" d="M111.64,143.19c0.76-0.03,1.35-0.7,1.31-1.49l-0.37-8.37c-0.04-0.79-0.68-1.4-1.44-1.37
				c-0.76,0.03-1.35,0.7-1.31,1.49l0.37,8.37C110.24,142.61,110.89,143.22,111.64,143.19z"/>
		</g>
		<line class="st31" x1="91.83" y1="136.38" x2="92.22" y2="145.22"/>
		<line class="st32" x1="84.91" y1="136.13" x2="85.08" y2="140.11"/>
		<g>
			
				<linearGradient id="SVGID_2_" gradientUnits="userSpaceOnUse" x1="-283.7241" y1="215.0168" x2="-265.994" y2="205.8487" gradientTransform="matrix(-1.0649 0.152 0.0222 0.6291 -199.4142 35.0714)">
				<stop  offset="0" style="stop-color:#91A0A0"/>
				<stop  offset="1" style="stop-color:#828C8C"/>
			</linearGradient>
			<path class="st33" d="M78.64,128.02c5.2,1.23,26.03-1.75,26.03-1.75s11-2.15,7.57-3.4c-8.01-2.91-24.58-1.23-24.58-1.23
				S72.92,126.66,78.64,128.02z"/>
		</g>
		<path class="st28" d="M112.5,122.98c-1.58,1.14-7.87,2.37-7.87,2.37s-20.83,2.98-26.03,1.75c-0.54-0.13-0.89-0.29-1.1-0.47
			c-0.39,0.58-0.16,1.08,1.14,1.39c5.2,1.23,26.03-1.75,26.03-1.75S115.03,124.24,112.5,122.98z"/>
		<path class="st27" d="M85.02,124.38c0.02,0.47,2.08,0.76,4.61,0.65c2.52-0.11,4.55-0.58,4.53-1.06c-0.02-0.47-2.08-0.76-4.61-0.65
			C87.03,123.44,85,123.91,85.02,124.38z"/>
		<path class="st9" d="M92.73,123.61c-0.49,0.69-5.21,1.13-5.73,0.39c0,0-0.85-7.73-8.86-6.31l-1.07-6.26l12.19-3.51l6.14,6.87
			C95.41,114.78,92.88,119.56,92.73,123.61z"/>
	</g>
</g>
<g>
	<path class="st34" d="M0,150l32-16l32,16v56l-32,16L0,206V150z"/>
	<path class="st1" d="M64,180l-32,16L0,180v2l32,16l32-16V180z"/>
	<polygon class="st2" points="0,182 0,206 32,222 32,198 	"/>
	<polygon class="st3" points="64,182 64,206 32,222 32,198 	"/>
</g>
<g>
	<polygon class="st5" points="52,136.07 32,126.07 12,136.07 4,148.07 4,172.07 32,186.07 60,172.07 60,148.07 	"/>
	<path class="st0" d="M54.87,161.8c-4.8,1.93-4,5.84-7.99,8.93c-4.44,3.44-8.06,6-14.88,6.25c-12.13-4.38-12.73-10.16-22.89-15.13
		c-1.11-1.41-2.27-5.51-2.27-10.12c0-3.49,2.27-6.67,2.27-11.33l2.89-4.34l20-10c0,0,20,10,20,10l6.11,9.16
		c-0.5,1.52-1.22,2.47-1.85,5.25C55.3,154.76,57.5,158.23,54.87,161.8"/>
	<polygon class="st35" points="12,136.07 4,148.07 4,172.07 12,156.07 	"/>
	<polygon class="st36" points="52,136.07 60,148.07 60,172.07 52,156.07 	"/>
	<path class="st1" d="M52,154.82l-20,10l-20-10v1.25l20,10l20-10V154.82z"/>
	<polygon class="st3" points="52,156.07 32,166.07 32,186.07 60,172.07 	"/>
	<polygon class="st2" points="12,156.07 32,166.07 32,186.07 4,172.07 	"/>
</g>
<g>
	<path class="st8" d="M32,16v40l32,16l32-16V16L64,0L32,16z"/>
	<path class="st5" d="M88,28L64,16L40,28v14l24,12l24-12V28z"/>
	<path class="st1" d="M32,46l32,16l32-16v2L64,64L32,48V46z"/>
	<path class="st1" d="M40,20L64,8l24,12v2L64,10L40,22V20z"/>
	<polygon class="st2" points="96,48 96,56 64,72 64,64 	"/>
	<polygon class="st3" points="32,48 32,56 64,72 64,64 	"/>
	<polygon class="st3" points="64,10 64,16 88,28 88,22 	"/>
	<polygon class="st2" points="64,10 64,16 40,28 40,22 	"/>
</g>
</svg>
