<?xml version="1.0" encoding="utf-8"?>
<!-- Generator: Adobe Illustrator 24.3.0, SVG Export Plug-In . SVG Version: 6.00 Build 0)  -->
<svg version="1.1" id="Calque_1" xmlns="http://www.w3.org/2000/svg" xmlns:xlink="http://www.w3.org/1999/xlink" x="0px" y="0px"
	 viewBox="0 0 192.07 314.74" style="enable-background:new 0 0 192.07 314.74;" xml:space="preserve">
<style type="text/css">
	.st0{fill:#BECDCD;}
	.st1{fill:#CC8537;}
	.st2{opacity:0.3;fill:#FFFFFF;}
	.st3{opacity:0.25;fill:#010202;}
	.st4{opacity:0.1;fill:#010202;}
	.st5{fill:#89CFDF;}
	.st6{opacity:0.1;}
	.st7{opacity:0.33;}
	.st8{opacity:0.5;}
	.st9{opacity:0.66;}
	.st10{fill:#81BB27;}
	.st11{fill:#EBDA6E;}
	.st12{opacity:0.4;}
	.st13{fill:#010202;}
	.st14{fill:#BDCDCD;}
	.st15{opacity:0.3;fill:#010202;}
	.st16{opacity:0.05;fill:#010202;}
	.st17{fill:#606E6D;}
	.st18{fill:#93A09F;}
</style>
<g>
	<path class="st0" d="M192.07,148.8l-32,16l-32-16v-15l32,16l32-16V148.8z"/>
	<path class="st1" d="M128.07,92.8l32-16l32,16v44l-32,16l-32-16V92.8z"/>
	<path class="st2" d="M192.07,122.8l-32,16l-32-16v2l32,16l32-16V122.8z"/>
	<polygon class="st3" points="128.07,124.8 128.07,148.8 160.07,164.8 160.07,140.8 	"/>
	<polygon class="st4" points="192.07,124.8 192.07,148.8 160.07,164.8 160.07,140.8 	"/>
</g>
<g>
	<path class="st1" d="M96,46.8l32-16l32,16v56l-32,16l-32-16V46.8z"/>
	<path class="st2" d="M160,76.8l-32,16l-32-16v2l32,16l32-16V76.8z"/>
	<polygon class="st3" points="96,78.8 96,102.8 128,118.8 128,94.8 	"/>
	<polygon class="st4" points="160,78.8 160,102.8 128,118.8 128,94.8 	"/>
</g>
<g>
	<path class="st1" d="M32,46.8l32-16l32,16v56l-32,16l-32-16V46.8z"/>
	<path class="st2" d="M96,76.8l-32,16l-32-16v2l32,16l32-16V76.8z"/>
	<polygon class="st3" points="32,78.8 32,102.8 64,118.8 64,94.8 	"/>
	<polygon class="st4" points="96,78.8 96,102.8 64,118.8 64,94.8 	"/>
</g>
<g>
	<path class="st0" d="M64,118.62l32-16l32,16v56l-32,16l-32-16V118.62z"/>
	<path class="st2" d="M128,148.62l-32,16l-32-16v2l32,16l32-16V148.62z"/>
	<polygon class="st3" points="64,150.62 64,174.62 96,190.62 96,166.62 	"/>
	<polygon class="st4" points="128,150.62 128,174.62 96,190.62 96,166.62 	"/>
</g>
<g>
	<path class="st0" d="M0,118.62l32-16l32,16v56l-32,16l-32-16V118.62z"/>
	<path class="st2" d="M64,148.62l-32,16l-32-16v2l32,16l32-16V148.62z"/>
	<polygon class="st3" points="0,150.62 0,174.62 32,190.62 32,166.62 	"/>
	<polygon class="st4" points="64,150.62 64,174.62 32,190.62 32,166.62 	"/>
</g>
<g>
	<path class="st0" d="M96,164.75l32-16l32,16v56l-32,16l-32-16V164.75z"/>
	<path class="st2" d="M160,194.75l-32,16l-32-16v2l32,16l32-16V194.75z"/>
	<polygon class="st3" points="96,196.75 96,220.75 128,236.75 128,212.75 	"/>
	<polygon class="st4" points="160,196.75 160,220.75 128,236.75 128,212.75 	"/>
</g>
<g>
	<path class="st0" d="M96,138.62l32-16l32,16v56l-32,16l-32-16V138.62z"/>
	<path class="st2" d="M160,168.62l-32,16l-32-16v2l32,16l32-16V168.62z"/>
	<polygon class="st3" points="96,170.62 96,194.62 128,210.62 128,186.62 	"/>
	<polygon class="st4" points="160,170.62 160,194.62 128,210.62 128,186.62 	"/>
</g>
<g>
	<path class="st5" d="M64.07,104.63l32-16l32,16v44l-32,16l-32-16V104.63z"/>
	<path class="st2" d="M128.07,134.62l-32,16l-32-16v2l32,16l32-16V134.62z"/>
	<polygon class="st3" points="64.07,136.62 64.07,148.62 96.07,164.62 96.07,152.62 	"/>
	<polygon class="st4" points="128.07,136.62 128.07,148.62 96.07,164.62 96.07,152.62 	"/>
</g>
<g class="st6">
	<path class="st5" d="M32,242.75l32-16l32,16v55.99l-32,16l-32-16V242.75z"/>
	<path class="st2" d="M96,272.75l-32,16l-32-16v2l32,16l32-16V272.75z"/>
	<polygon class="st3" points="32,274.74 32,298.74 64,314.74 64,290.74 	"/>
	<polygon class="st4" points="96,274.74 96,298.74 64,314.74 64,290.74 	"/>
</g>
<g class="st7">
	<path class="st5" d="M32,216.75l32-16l32,16v55.99l-32,16l-32-16V216.75z"/>
	<path class="st2" d="M96,246.75l-32,16l-32-16v2l32,16l32-16V246.75z"/>
	<polygon class="st3" points="32,248.74 32,272.74 64,288.74 64,264.74 	"/>
	<polygon class="st4" points="96,248.74 96,272.74 64,288.74 64,264.74 	"/>
</g>
<g class="st8">
	<path class="st5" d="M32,190.62l32-16l32,16v55.99l-32,16l-32-16V190.62z"/>
	<path class="st2" d="M96,220.62l-32,16l-32-16v2l32,16l32-16V220.62z"/>
	<polygon class="st3" points="32,222.62 32,246.61 64,262.61 64,238.61 	"/>
	<polygon class="st4" points="96,222.62 96,246.61 64,262.61 64,238.61 	"/>
</g>
<g class="st9">
	<path class="st5" d="M32,164.76l32-16l32,16v55.99l-32,16l-32-16V164.76z"/>
	<path class="st2" d="M96,194.75l-32,16l-32-16v2l32,16l32-16V194.75z"/>
	<polygon class="st3" points="32,196.75 32,220.75 64,236.75 64,212.75 	"/>
	<polygon class="st4" points="96,196.75 96,220.75 64,236.75 64,212.75 	"/>
</g>
<g>
	<path class="st0" d="M64,148.62l-32,16l-32-16v-15l8-2l8,10l8-2l8,10l8.06-10.03l7.94,2.03l7.8-10l8.2,2V148.62z"/>
	<path class="st10" d="M0,92.62l32-16l32,16v44l-8.2-2l-7.8,10l-7.94-2.03L32,152.62l-8-10l-8,2l-8-10l-8,2V92.62z"/>
	<path class="st2" d="M64,122.62l-32,16l-32-16v2l32,16l32-16V122.62z"/>
	<polygon class="st3" points="0,124.62 0,148.62 32,164.62 32,140.62 	"/>
	<polygon class="st4" points="64,124.62 64,148.62 32,164.62 32,140.62 	"/>
</g>
<g>
	<path class="st5" d="M32,150.76l32-16l32,16v44l-32,16l-32-16V150.76z"/>
	<path class="st2" d="M96,180.75l-32,16l-32-16v2l32,16l32-16V180.75z"/>
	<polygon class="st3" points="32,182.75 32,194.75 64,210.75 64,198.75 	"/>
	<polygon class="st4" points="96,182.75 96,194.75 64,210.75 64,198.75 	"/>
</g>
<g>
	<path class="st1" d="M96,76.8l-32,16l-32-16v-15l8-2l8,10l8-2l8,10l8.06-10.03L80,69.8l7.8-10l8.2,2V76.8z"/>
	<path class="st10" d="M32,20.8l32-16l32,16v44l-8.2-2l-7.8,10l-7.94-2.03L64,80.8l-8-10l-8,2l-8-10l-8,2V20.8z"/>
	<path class="st2" d="M96,50.8l-32,16l-32-16v2l32,16l32-16V50.8z"/>
	<polygon class="st3" points="32,52.8 32,76.8 64,92.8 64,68.8 	"/>
	<polygon class="st4" points="96,52.8 96,76.8 64,92.8 64,68.8 	"/>
</g>
<g>
	<path class="st10" d="M96,20.8l32-16l32,16v56l-32,16l-32-16V20.8z"/>
	<path class="st2" d="M160,50.8l-32,16l-32-16v2l32,16l32-16V50.8z"/>
	<polygon class="st3" points="96,52.8 96,76.8 128,92.8 128,68.8 	"/>
	<polygon class="st4" points="160,52.8 160,76.8 128,92.8 128,68.8 	"/>
</g>
<g>
	<path class="st1" d="M192.07,122.8l-32,16l-32-16v-15l32,16l32-16V122.8z"/>
	<path class="st11" d="M128.07,66.8l32-16l32,16v44l-32,16l-32-16V66.8z"/>
	<path class="st2" d="M192.07,96.8l-32,16l-32-16v2l32,16l32-16V96.8z"/>
	<polygon class="st3" points="128.07,98.8 128.07,122.8 160.07,138.8 160.07,114.8 	"/>
	<polygon class="st4" points="192.07,98.8 192.07,122.8 160.07,138.8 160.07,114.8 	"/>
</g>
<g class="st12">
	<path class="st13" d="M64.07,104.67l32-16l32,16v30l-32,16l-32-16V104.67z"/>
</g>
<g>
	<path class="st14" d="M128.07,122.8l-32,16l-32-16v-15l8-2l8,10l8-2l8,10l8.06-10.03l7.94,2.03l7.8-10l8.2,2V122.8z"/>
	<path class="st10" d="M64.07,66.8l32-16l32,16v44l-8.2-2l-7.8,10l-7.94-2.03l-8.06,10.03l-8-10l-8,2l-8-10l-8,2V66.8z"/>
	<path class="st2" d="M128.07,96.8l-32,16l-32-16v2l32,16l32-16V96.8z"/>
	<polygon class="st3" points="64.07,98.8 64.07,122.8 96.07,138.8 96.07,114.8 	"/>
	<polygon class="st4" points="128.07,98.8 128.07,122.8 96.07,138.8 96.07,114.8 	"/>
</g>
<g>
	<path class="st0" d="M160.07,168.8l-32,16l-32-16v-15l32,16l32-16V168.8z"/>
	<path class="st11" d="M96.07,112.8l32-16l32,16v44l-32,16l-32-16V112.8z"/>
	<path class="st2" d="M160.07,142.8l-32,16l-32-16v2l32,16l32-16V142.8z"/>
	<polygon class="st3" points="96.07,144.8 96.07,168.8 128.07,184.8 128.07,160.8 	"/>
	<polygon class="st4" points="160.07,144.8 160.07,168.8 128.07,184.8 128.07,160.8 	"/>
</g>
<g>
	<polygon class="st0" points="146.57,10 126.57,0 106.57,10 98.57,22 98.57,46 126.57,60 154.57,46 154.57,22 	"/>
	<polygon class="st15" points="106.57,10 98.57,22 98.57,46 106.57,30 	"/>
	<path class="st10" d="M149.43,35.73c-6.2,2.1-10.73-1.8-10.73-1.8c-0.88-5.42,3.62-5.89,3.62-11.1c0-4.88-5.33-4.33-5.33-9.96
		c0-2.63,1.43-4.77,3.58-5.88c0,0,6,3,6,3l6.43,9.65c-0.5,1.52-1.46,1.55-2.09,4.33C149.95,28.26,151.3,31.3,149.43,35.73"/>
	<polygon class="st16" points="146.57,10 154.57,22 154.57,46 146.57,30 	"/>
	<path class="st2" d="M146.57,28.75l-20,10l-20-10V30l20,10l20-10V28.75z"/>
	<polygon class="st4" points="146.57,30 126.57,40 126.57,60 154.57,46 	"/>
	<polygon class="st3" points="106.57,30 126.57,40 126.57,60 98.57,46 	"/>
</g>
<g>
	<g>
		<polygon class="st17" points="88.67,83.13 86.44,91.49 70.07,99.67 66.29,97.78 65.79,80.43 		"/>
		<polygon class="st17" points="103.47,83.13 105.7,91.49 122.07,99.67 125.85,97.78 126.35,80.43 		"/>
		<path class="st18" d="M96.07,24.67l-32,16v56l6,3c0,0,0-1.54,0-5.5c0-5.5,1.66-12.24,10-8c9.5,4.83,10,14.04,10,18
			c0,3.96,0,5.5,0,5.5l6,3l6-3c0,0,0-1.54,0-5.5c0-3.96,0.5-13.17,10-18c8.34-4.24,10,2.5,10,8c0,3.96,0,5.5,0,5.5l6-3v-56
			L96.07,24.67z"/>
		<path class="st2" d="M64.07,70.67l32,16l32-16v2l-32,16l-32-16V70.67z"/>
		<polygon class="st3" points="64.07,72.67 64.07,96.67 96.07,112.67 96.07,88.67 		"/>
		<polygon class="st4" points="128.07,72.67 128.07,96.67 96.07,112.67 96.07,88.67 		"/>
	</g>
	<g>
		<path class="st18" d="M96.07,14.67l-32,16v40l32,16l32-16v-40L96.07,14.67z"/>
		<path class="st0" d="M72.07,42.67l24-12l24,12v14l-24,12l-24-12V42.67z"/>
		<path class="st2" d="M128.07,60.67l-32,16l-32-16v2l32,16l32-16V60.67z"/>
		<path class="st2" d="M120.07,34.67l-24-12l-24,12v2l24-12l24,12V34.67z"/>
		<polygon class="st3" points="64.07,62.67 64.07,70.67 96.07,86.67 96.07,78.67 		"/>
		<polygon class="st4" points="128.07,62.67 128.07,70.67 96.07,86.67 96.07,78.67 		"/>
		<polygon class="st4" points="96.07,24.67 96.07,30.67 72.07,42.67 72.07,36.67 		"/>
		<polygon class="st3" points="96.07,24.67 96.07,30.67 120.07,42.67 120.07,36.67 		"/>
	</g>
</g>
<g>
	<polygon class="st0" points="173.04,61.81 160,55.39 147,61.81 142,69.53 142,84.96 160,93.96 178,84.96 178,69.53 	"/>
	<polygon class="st15" points="147,61.81 142,69.53 142,84.96 147,74.67 	"/>
	<polygon class="st16" points="173.04,61.81 178,69.53 178,84.96 173,74.67 	"/>
	<path class="st2" d="M173,73.87l-13,6.43l-13-6.43v0.8l13,6.43l13-6.43V73.87z"/>
	<polygon class="st4" points="173,74.67 160,81.1 160,93.96 178,84.96 	"/>
	<polygon class="st3" points="147,74.67 160,81.1 160,93.96 142,84.96 	"/>
</g>
</svg>
