<?xml version="1.0" encoding="utf-8"?>
<!-- Generator: Adobe Illustrator 24.3.0, SVG Export Plug-In . SVG Version: 6.00 Build 0)  -->
<svg version="1.1" id="Calque_1" xmlns="http://www.w3.org/2000/svg" xmlns:xlink="http://www.w3.org/1999/xlink" x="0px" y="0px"
	 viewBox="0 0 128 160" style="enable-background:new 0 0 128 160;" xml:space="preserve">
<style type="text/css">
	.st0{fill:#BDCDCD;}
	.st1{fill:#81BB27;}
	.st2{opacity:0.3;fill:#FFFFFF;}
	.st3{opacity:0.25;fill:#010202;}
	.st4{opacity:0.1;fill:#010202;}
	.st5{fill:#CC8537;}
	.st6{opacity:0.3;fill:#010202;}
	.st7{opacity:0.05;fill:#010202;}
	.st8{fill:#108D42;}
</style>
<g>
	<path class="st0" d="M96,72L64,88L32,72V57l8-2l8,10l8-2l8,10l8.06-10.03L80,65l7.8-10l8.2,2V72z"/>
	<path class="st1" d="M32,16L64,0l32,16v44l-8.2-2L80,68l-7.94-2.03L64,76l-8-10l-8,2l-8-10l-8,2V16z"/>
	<path class="st2" d="M96,46L64,62L32,46v2l32,16l32-16V46z"/>
	<polygon class="st3" points="32,48 32,72 64,88 64,64 	"/>
	<polygon class="st4" points="96,48 96,72 64,88 64,64 	"/>
</g>
<g>
	<path class="st0" d="M128,144l-32,16l-32-16v-15l32,16l32-16V144z"/>
	<path class="st5" d="M64,88l32-16l32,16v44l-32,16l-32-16V88z"/>
	<path class="st2" d="M128,118l-32,16l-32-16v2l32,16l32-16V118z"/>
	<polygon class="st3" points="64,120 64,144 96,160 96,136 	"/>
	<polygon class="st4" points="128,120 128,144 96,160 96,136 	"/>
</g>
<g>
	<path class="st0" d="M0,88l32-16l32,16v56l-32,16L0,144V88z"/>
	<path class="st2" d="M64,118l-32,16L0,118v2l32,16l32-16V118z"/>
	<polygon class="st3" points="0,120 0,144 32,160 32,136 	"/>
	<polygon class="st4" points="64,120 64,144 32,160 32,136 	"/>
</g>
<g>
	<polygon class="st0" points="41.04,81.43 28,75 15,81.43 10,89.14 10,104.57 28,113.57 46,104.57 46,89.14 	"/>
	<polygon class="st6" points="15,81.43 10,89.14 10,104.57 15,94.28 	"/>
	<polygon class="st7" points="41.04,81.43 46,89.14 46,104.57 41,94.28 	"/>
	<path class="st2" d="M41,93.48l-13,6.43l-13-6.43v0.8l13,6.43l13-6.43V93.48z"/>
	<polygon class="st4" points="41,94.28 28,100.71 28,113.57 46,104.57 	"/>
	<polygon class="st3" points="15,94.28 28,100.71 28,113.57 10,104.57 	"/>
</g>
<g>
	<path class="st5" d="M128,118l-32,16l-32-16v-15l8-2l8,10l8-2l8,10l8.06-10.03L112,111l7.8-10l8.2,2V118z"/>
	<path class="st1" d="M64,62l32-16l32,16v44l-8.2-2l-7.8,10l-7.94-2.03L96,122l-8-10l-8,2l-8-10l-8,2V62z"/>
	<path class="st2" d="M128,92l-32,16L64,92v2l32,16l32-16V92z"/>
	<polygon class="st3" points="64,94 64,118 96,134 96,110 	"/>
	<polygon class="st4" points="128,94 128,118 96,134 96,110 	"/>
</g>
<path class="st8" d="M99.85,63.28c1.73-4.63,1.73-8.75,0-12.35l0.75-0.55c2.9,3.37,4.43,7.13,4.6,11.3c1.2-1.03,2.6-1.6,4.2-1.7
	l0.5,0.6c-1.43,2.3-2.33,4.9-2.7,7.8c-2.93,2.4-6.18,2.4-9.75,0c-0.67-2.6-1.52-4.83-2.55-6.7l0.35-1
	C97.08,61.18,98.62,62.05,99.85,63.28"/>
</svg>
