<?xml version="1.0" encoding="utf-8"?>
<!-- Generator: Adobe Illustrator 24.3.0, SVG Export Plug-In . SVG Version: 6.00 Build 0)  -->
<svg version="1.1" id="Calque_1" xmlns="http://www.w3.org/2000/svg" xmlns:xlink="http://www.w3.org/1999/xlink" x="0px" y="0px"
	 viewBox="0 0 128 159.68" style="enable-background:new 0 0 128 159.68;" xml:space="preserve">
<style type="text/css">
	.st0{fill:#BDCDCD;}
	.st1{opacity:0.3;fill:#FFFFFF;}
	.st2{opacity:0.25;fill:#010202;}
	.st3{opacity:0.1;fill:#010202;}
	.st4{fill:#81BB27;}
	.st5{fill:#3D9C36;}
	.st6{fill:#CC8537;}
	.st7{opacity:0.25;fill:#020203;}
	.st8{fill:#964B30;}
	.st9{fill:#2A8D37;}
</style>
<g>
	<path class="st0" d="M32,71.68l32-16l32,16v56l-32,16l-32-16V71.68z"/>
	<path class="st1" d="M96,101.68l-32,16l-32-16v2l32,16l32-16V101.68z"/>
	<polygon class="st2" points="32,103.68 32,127.68 64,143.68 64,119.68 	"/>
	<polygon class="st3" points="96,103.68 96,127.68 64,143.68 64,119.68 	"/>
</g>
<g>
	<path class="st0" d="M0,87.68l32-16l32,16v56l-32,16l-32-16V87.68z"/>
	<path class="st1" d="M64,117.68l-32,16l-32-16v2l32,16l32-16V117.68z"/>
	<polygon class="st2" points="0,119.68 0,143.68 32,159.68 32,135.68 	"/>
	<polygon class="st3" points="64,119.68 64,143.68 32,159.68 32,135.68 	"/>
</g>
<g>
	<path class="st4" d="M32.09,16l32-16l32,16v30l-32,16l-32-16V16z"/>
</g>
<path class="st5" d="M63.54,19.33c1.73-4.63,1.73-8.75,0-12.35l0.75-0.55c2.9,3.37,4.43,7.13,4.6,11.3c1.2-1.03,2.6-1.6,4.2-1.7
	l0.5,0.6c-1.43,2.3-2.33,4.9-2.7,7.8c-2.93,2.4-6.18,2.4-9.75,0c-0.67-2.6-1.52-4.83-2.55-6.7l0.35-1
	C60.77,17.23,62.3,18.1,63.54,19.33"/>
<g>
	<path class="st0" d="M64,117.68l-32,16l-32-16v-15l8-2l8,10l8-2l8,10l8.06-10.03l7.94,2.03l7.8-10l8.2,2V117.68z"/>
	<path class="st4" d="M0,61.68l32-16l32,16v44l-8.2-2l-7.8,10l-7.94-2.03L32,121.68l-8-10l-8,2l-8-10l-8,2V61.68z"/>
	<path class="st1" d="M64,91.68l-32,16l-32-16v2l32,16l32-16V91.68z"/>
	<polygon class="st2" points="0,93.68 0,117.68 32,133.68 32,109.68 	"/>
	<polygon class="st3" points="64,93.68 64,117.68 32,133.68 32,109.68 	"/>
</g>
<g>
	<path class="st6" d="M128,117.68l-32,16l-32-16v-15l8-2l8,10l8-2l8,10l8.06-10.03l7.94,2.03l7.8-10l8.2,2V117.68z"/>
	<path class="st4" d="M64,61.68l32-16l32,16v44l-8.2-2l-7.8,10l-7.94-2.03L96,121.68l-8-10l-8,2l-8-10l-8,2V61.68z"/>
	<path class="st1" d="M128,91.68l-32,16l-32-16v2l32,16l32-16V91.68z"/>
	<polygon class="st2" points="64,93.68 64,117.68 96,133.68 96,109.68 	"/>
	<polygon class="st3" points="128,93.68 128,117.68 96,133.68 96,109.68 	"/>
</g>
<g>
	<ellipse class="st7" cx="32.09" cy="74.12" rx="20" ry="13"/>
	<path class="st8" d="M28.09,66.08v6c0,2.21,1.79,4,4,4s4-1.79,4-4v-6H28.09z"/>
	<path class="st5" d="M32.09,15.27V68.1c8.28,0,15-6.72,15-15V30.27C47.09,21.98,40.37,15.27,32.09,15.27z"/>
	<path class="st9" d="M32.09,15.27V68.1c-8.28,0-15-6.72-15-15V30.27C17.09,21.98,23.8,15.27,32.09,15.27z"/>
</g>
</svg>
