<?xml version="1.0" encoding="utf-8"?>
<!-- Generator: Adobe Illustrator 24.3.0, SVG Export Plug-In . SVG Version: 6.00 Build 0)  -->
<svg version="1.1" id="Calque_1" xmlns="http://www.w3.org/2000/svg" xmlns:xlink="http://www.w3.org/1999/xlink" x="0px" y="0px"
	 viewBox="0 0 346 90" style="enable-background:new 0 0 346 90;" xml:space="preserve">
<g>
	<polygon points="55.98,4.56 48.28,4.56 34.99,46.9 21.65,4.56 13.95,4.56 8.27,4.56 0,4.56 0,68.64 16.55,68.64 16.55,56.32 
		14.96,24.73 29.53,68.64 40.4,68.64 54.97,24.73 53.38,56.32 53.38,68.64 69.97,68.64 69.97,4.56 61.66,4.56 	"/>
	<path d="M97.97,45.92l-6.78-24.89H74.2l16.43,48.13l-1.07,2.75c-0.38,1-1.05,1.78-2,2.35c-0.95,0.57-2.6,0.86-4.95,0.86
		c-0.35,0-0.65,0.01-0.9,0.02s-0.55,0.02-0.9,0.02v11.79c0.94,0.23,1.69,0.43,2.24,0.57c0.56,0.15,1.13,0.24,1.72,0.29
		c0.59,0.04,1.38,0.07,2.38,0.07c2.76,0,5.07-0.4,6.93-1.21c1.86-0.81,3.39-1.84,4.58-3.1c1.19-1.26,2.13-2.6,2.84-4
		c0.7-1.41,1.26-2.71,1.67-3.92l18.97-54.62h-16.99L97.97,45.92z"/>
	<polygon points="189.1,46.75 182.2,21.02 181.05,21.02 172.65,21.02 171.2,21.02 164.25,47.31 160.11,21.02 144.92,21.02 
		155.97,68.64 161.43,68.64 165.52,68.64 169.3,68.64 176.78,42.91 184.09,68.64 187.92,68.64 192.06,68.64 197.51,68.64 
		208.47,21.02 193.33,21.02 	"/>
	<path d="M247.44,23.31c-3.45-2.11-7.71-3.17-12.78-3.17c-5.02,0-9.24,1.06-12.67,3.17c-3.43,2.11-6.03,5-7.79,8.65
		c-1.76,3.65-2.64,7.81-2.64,12.48v0.84c0,4.64,0.88,8.79,2.64,12.45c1.76,3.67,4.36,6.55,7.81,8.65c3.45,2.1,7.69,3.15,12.74,3.15
		c5.05,0,9.29-1.05,12.72-3.15c3.43-2.1,6.02-4.98,7.77-8.65c1.75-3.67,2.62-7.82,2.62-12.45v-0.84c0-4.67-0.87-8.82-2.62-12.48
		C253.49,28.31,250.89,25.43,247.44,23.31z M242.01,45.27c0,2.17-0.2,4.13-0.59,5.88c-0.4,1.75-1.12,3.12-2.18,4.11
		c-1.06,1-2.55,1.5-4.49,1.5c-1.97,0-3.48-0.5-4.53-1.5c-1.06-1-1.78-2.37-2.18-4.11c-0.4-1.75-0.59-3.7-0.59-5.88v-0.84
		c0-2.11,0.2-4.04,0.59-5.79c0.4-1.75,1.11-3.14,2.16-4.18c1.04-1.04,2.53-1.56,4.47-1.56c2,0,3.52,0.52,4.58,1.56
		c1.06,1.04,1.78,2.44,2.18,4.18c0.4,1.75,0.59,3.67,0.59,5.79V45.27z"/>
	<path d="M289.54,20.14c-2.67,0-5,0.89-6.98,2.68c-1.22,1.1-2.25,2.52-3.13,4.18l-0.5-5.98h-14.79v47.62h15.84V39.33
		c0.62-1.2,1.62-2.09,3.01-2.66c1.39-0.57,3.21-0.86,5.44-0.86c0.65,0,1.49,0.04,2.53,0.13c1.04,0.09,1.87,0.16,2.49,0.22
		l0.26-15.49c-0.56-0.21-1.21-0.34-1.96-0.42C291.01,20.18,290.27,20.14,289.54,20.14z"/>
	<polygon points="327.87,68.64 346,68.64 328.67,40.7 344.94,21.02 325.98,21.02 315.63,34.27 314.49,35.81 314.49,1 298.6,1 
		298.6,68.64 314.49,68.64 314.49,55.63 318.41,51.76 	"/>
</g>
</svg>
